<?xml version="1.0" encoding="utf-8"?>
<!-- Generator: Adobe Illustrator 22.0.1, SVG Export Plug-In . SVG Version: 6.00 Build 0)  -->
<svg version="1.1" id="Слой_1" xmlns="http://www.w3.org/2000/svg" xmlns:xlink="http://www.w3.org/1999/xlink" x="0px" y="0px"
	 viewBox="0 0 800 800" style="enable-background:new 0 0 800 800;" xml:space="preserve">
<style type="text/css">
	.st0{fill:#CCCECE;}
	.st1{fill:#FFFFFF;}
	.st2{fill:#E2E2E2;}
	.st3{fill:#AFAFAF;}
	.st4{fill:#8D8E8E;}
	.st5{fill:#919191;}
</style>
<g>
	<g>
		<path class="st0" d="M307,237.4l-113.3,36.3c-6.9,2.2-13.8,9.8-15.4,17l-25.2,116.3c-1.5,7.1,1.6,16.9,7,21.8l88.1,80
			c5.4,4.9,15.5,7.1,22.4,4.9l113.3-36.3c6.9-2.2,13.8-9.8,15.4-16.9l25.2-116.3c1.5-7.1-1.6-16.9-7-21.8l-88.1-80
			C324,237.4,314,235.2,307,237.4z"/>
		<path class="st1" d="M428.2,73.1l-16.3,75.4c-1,4.6,1,11,4.5,14.1l57.1,51.8c3.5,3.2,10,4.6,14.5,3.2l73.4-23.5
			c4.5-1.4,9-6.4,10-11l16.4-75.4c1-4.6-1-11-4.5-14.1l-57.1-51.8c-3.5-3.2-10-4.6-14.5-3.1l-73.4,23.5
			C433.6,63.5,429.2,68.5,428.2,73.1z"/>
		<path class="st2" d="M486.4,328.8l-27.6,127c-3.5,16-17.4,31.3-33,36.3l-123.8,39.7c-7.7,2.5-16.5,2.6-24.9,0.9l-2.6,11.8
			c-2.2,10.2,2.3,24.4,10.1,31.4l126.9,115.2c7.8,7,22.3,10.2,32.2,7L607,645.9c10-3.2,20-14.2,22.2-24.4l36.3-167.5
			c2.2-10.2-2.3-24.4-10.1-31.4L528.6,307.2c-7.8-7-22.3-10.2-32.2-7l-11.5,3.7C486.8,309.9,488.5,319,486.4,328.8z"/>
	</g>
</g>
<g>
	<g>
		<path class="st3" d="M651.5,565.2C549.2,462.9,403.6,739.7,319.9,656c-83.7-83.7,286.7-251.7,102.9-435.5
			c-180-180-430,201.3-192.6,438.8C432.6,861.7,749.9,663.7,651.5,565.2z"/>
		<path class="st4" d="M319.9,656c30.6,30.6,69.4,13.1,111.3-16.5c-46.6,1.2-88.3-31.1-85.5-87.2C312.7,594,293.2,629.3,319.9,656z"
			/>
		
			<ellipse transform="matrix(0.9999 -1.316769e-02 1.316769e-02 0.9999 -5.1725 7.7913)" class="st5" cx="589.1" cy="396.7" rx="94.1" ry="94.1"/>
	</g>
</g>
</svg>
